<?xml version="1.0" standalone="no"?>
<!DOCTYPE svg PUBLIC "-//W3C//DTD SVG 20010904//EN"
 "http://www.w3.org/TR/2001/REC-SVG-20010904/DTD/svg10.dtd">
<svg version="1.0" xmlns="http://www.w3.org/2000/svg"
 width="250.000000pt" height="100.000000pt" viewBox="0 0 250.000000 100.000000"
 preserveAspectRatio="xMidYMid meet">

<g transform="translate(0.000000,100.000000) scale(0.100000,-0.100000)"
fill="#000000" stroke="none">
<path d="M390 510 l0 -130 39 0 c40 0 40 0 43 43 l3 42 53 3 c50 3 52 4 52 33
0 29 -1 29 -55 29 -52 0 -55 1 -55 25 0 24 2 25 65 25 l65 0 0 30 0 30 -105 0
-105 0 0 -130z"/>
<path d="M1360 510 l0 -130 80 0 c132 0 190 39 190 130 0 91 -58 130 -190 130
l-80 0 0 -130z m180 28 c13 -25 13 -31 0 -55 -13 -23 -23 -28 -53 -28 -20 0
-37 3 -37 8 0 4 0 30 0 58 l0 50 37 -3 c29 -2 41 -9 53 -30z"/>
<path d="M1700 510 l0 -130 45 0 45 0 0 130 0 130 -45 0 -45 0 0 -130z"/>
<path d="M1870 510 l0 -130 105 0 105 0 0 34 c0 33 -1 34 -37 34 -81 0 -93 2
-93 17 0 12 13 15 55 15 54 0 55 0 55 30 0 30 -1 30 -55 30 -48 0 -55 2 -55
20 0 18 7 20 65 20 l65 0 0 30 0 30 -105 0 -105 0 0 -130z"/>
</g>
</svg>
